# xmcd
#
# Track frame offsets: 
#        150
#        15940
#        28715
#        35820
#        44485
#        52435
#        57075
#        63108
#        71303
#        74455
#        87273
#        93745
#        105485
#        115325
#        125835
#        136080
#        143928
#        147695
#        151630
#        158085
#        171353
#        175345
#        182318
#        192133
#        202643
#        209304
#        216020
#        223800
#        233275
#        244142
#        253228
#        262193
#        277125
#        290840
#
# Disc length: 4090 seconds
#
# Revision: 6
# Processed by: cddbd v1.5.2PL0 Copyright (c) Steve Scherf et al.
# Submitted via: ExactAudioCopy v0.99pb5
#
DISCID=0a0ff822
DTITLE=Kinder - Das Liederbuch CD 2
DYEAR=1999
DGENRE=Kinderlieder
TTITLE0=Schlafe, mein Prinzchen (Die Klosterspatzen Hördt)
TTITLE1=Weisst Du, wieviel Sternlein stehen (Hermann Prey)
TTITLE2=Der Mond ist aufgegangen (Jürgen Schöntges and Freunde)
TTITLE3=Wer hat die schönsten Schäfchen (Wiener Sängerknaben)
TTITLE4=Alle Vögel sind schon da (Kinderchor des NDR)
TTITLE5=Kuckuck, Kuckuck ruft's aus dem Wald (Kinderchor des NDR)
TTITLE6=Im Märzen der Bauer (Kinderchor)
TTITLE7=Nun will der Lenz uns grüssen (Kinderchor)
TTITLE8=Jetzt fängt das schöne Frühjahr an (Jürgen Schöntges and Freunde
TTITLE8=)
TTITLE9=Es tönen die Lieder (Hermann Prey)
TTITLE10=Wem Gott will rechte Gunst erweisen (Regensburger Domspatzen)
TTITLE11=Das Wandern ist des Müllers Lust (Regensburger Domspatzen)
TTITLE12=Geh' aus, mein Herz und suche Freud' (Kinderchor Münchweiler)
TTITLE13=Es klappert die Mühle am rauschenden Bach (Hermann Prey and Töl
TTITLE13=zer Knabenchor)
TTITLE14=Winde wehn', Schiffe gehn' (Hermann Prey)
TTITLE15=Bunt sind schon die Wälder (Kinderchor)
TTITLE16=Spannenlanger Hansel (Kinderchor des NDR)
TTITLE17=Laterne, Laterne, Sonne, Mond und Sterne (Kinderchor des NDR)
TTITLE18=Ich geh mit meiner Laterne (Kinderchor)
TTITLE19=In einem kleinen Apfel (Hermann Prey)
TTITLE20=A B C, die Katze lief im Schnee (Die Froschkönige Jockgrim)
TTITLE21=Schneeflöckchen, Weissröckchen (Kehrwieder Kinderchor)
TTITLE22=O Tannenbaum, oh Tannenbaum (Tölzer Knabenchor)
TTITLE23=Lasst uns froh und munter sein (Die Froschkönige Jockgrim)
TTITLE24=Morgen, Kinder wird's was geben (Kinderchor)
TTITLE25=Leise rieselt der Schnee (Die Froschkönige Jockgrim)
TTITLE26=Alle Jahre wieder (Tölzer Knabenchor)
TTITLE27=Vom Himmel hoch, da komm ich her (Regensburger Domspatzen)
TTITLE28=O du fröhliche, o du selige (Regensburger Domspatzen)
TTITLE29=Kommet, Ihr Hirten (Tölzer Knabenchor)
TTITLE30=Was soll das bedeuten (Fritz Wunderlich and Hermann Prey)
TTITLE31=Ihr Kinderlein, kommet (Tölzer Knabenchor)
TTITLE32=Stille Nacht, heilige Nacht (Regensburger Domspatzen)
TTITLE33=Maria durch ein' Dornwald ging (Regensburger Domspatzen)
EXTD=
EXTT0=
EXTT1=
EXTT2=
EXTT3=
EXTT4=
EXTT5=
EXTT6=
EXTT7=
EXTT8=
EXTT9=
EXTT10=
EXTT11=
EXTT12=
EXTT13=
EXTT14=
EXTT15=
EXTT16=
EXTT17=
EXTT18=
EXTT19=
EXTT20=
EXTT21=
EXTT22=
EXTT23=
EXTT24=
EXTT25=
EXTT26=
EXTT27=
EXTT28=
EXTT29=
EXTT30=
EXTT31=
EXTT32=
EXTT33=
PLAYORDER=
